<?xml version="1.0" encoding="UTF-8"?>
<!DOCTYPE svg PUBLIC "-//W3C//DTD SVG 1.1//EN" "http://www.w3.org/Graphics/SVG/1.1/DTD/svg11.dtd">
<svg version="1.1" xmlns="http://www.w3.org/2000/svg" xmlns:xlink="http://www.w3.org/1999/xlink" x="0" y="0" width="1000" height="1000" viewBox="0, 0, 1000, 1000">
  <g id="Layer_1">
    <path d="M666.089,596.083 C625.814,596.083 593.143,628.759 593.143,669.048 C593.143,709.323 625.814,741.979 666.089,741.979 C706.373,741.979 739.034,709.323 739.034,669.048 C739.034,628.759 706.373,596.083 666.089,596.083" fill="#59B5AC"/>
    <path d="M494.164,426.732 C453.855,426.732 421.194,459.403 421.194,499.702 C421.194,539.977 453.855,572.623 494.164,572.623 C534.424,572.623 567.081,539.977 567.081,499.702 C567.081,459.403 534.424,426.732 494.164,426.732" fill="#59B5AC"/>
    <path d="M494.164,596.083 C453.855,596.083 421.194,628.759 421.194,669.048 C421.194,709.323 453.855,741.979 494.164,741.979 C534.424,741.979 567.081,709.323 567.081,669.048 C567.081,628.759 534.424,596.083 494.164,596.083" fill="#343534"/>
    <path d="M666.089,426.732 C625.814,426.732 593.143,459.403 593.143,499.702 C593.143,539.977 625.814,572.623 666.089,572.623 C706.373,572.623 739.034,539.977 739.034,499.702 C739.034,459.403 706.373,426.732 666.089,426.732" fill="#343534"/>
    <path d="M666.089,257.405 C625.814,257.405 593.143,290.056 593.143,330.35 C593.143,370.615 625.814,403.276 666.089,403.276 C706.373,403.276 739.034,370.615 739.034,330.35 C739.034,290.056 706.373,257.405 666.089,257.405" fill="#343534"/>
    <path d="M322.187,257.405 C281.888,257.405 249.237,290.056 249.237,330.35 C249.237,370.615 281.888,403.276 322.187,403.276 C362.466,403.276 395.132,370.615 395.132,330.35 C395.132,290.056 362.466,257.405 322.187,257.405" fill="#343534"/>
    <path d="M322.187,596.083 C281.888,596.083 249.237,628.759 249.237,669.048 C249.237,709.323 281.888,741.979 322.187,741.979 C362.466,741.979 395.132,709.323 395.132,669.048 C395.132,628.759 362.466,596.083 322.187,596.083" fill="#343534"/>
    <path d="M494.164,257.405 C453.855,257.405 421.194,290.056 421.194,330.35 C421.194,370.615 453.855,403.276 494.164,403.276 C534.424,403.276 567.081,370.615 567.081,330.35 C567.081,290.056 534.424,257.405 494.164,257.405" fill="#343534"/>
    <path d="M322.187,426.732 C281.888,426.732 249.237,459.403 249.237,499.702 C249.237,539.977 281.888,572.623 322.187,572.623 C362.466,572.623 395.132,539.977 395.132,499.702 C395.132,459.403 362.466,426.732 322.187,426.732" fill="#343534"/>
    <path d="M494.152,867.034 C291.241,867.034 126.793,702.548 126.793,499.685 C126.793,296.799 291.241,132.317 494.152,132.317 C697.029,132.317 861.486,296.799 861.486,499.685 C861.486,574.37 839.142,643.822 800.853,701.796 L931.825,713.814 C963.493,649.185 981.332,576.529 981.332,499.685 C981.332,230.604 763.209,12.486 494.152,12.486 C225.047,12.486 6.943,230.604 6.943,499.685 C6.943,768.752 225.047,986.87 494.152,986.87 C579.11,986.87 658.956,965.075 728.48,926.853 L694.432,807.552 C636.8,845.133 568.042,867.034 494.152,867.034" fill="#343534"/>
    <path d="M895.358,840.997 L963.736,760.867 L719.495,719.86 L762.473,962.134 L838.695,891.781 L938.346,987.514 L993.057,928.919 z" fill="#343534"/>
  </g>
</svg>
